<svg xmlns="http://www.w3.org/2000/svg"><style>:root svg:not(:target){display:none}</style><svg fill="none" id="arrow" viewBox="0 0 24 12"><path stroke="#000" stroke-width="2" d="M0 6h18"></path><path fill="#000" d="m24 6-6.75 5.2V.8L24 6Z"></path></svg><svg fill="none" id="eat" viewBox="0 0 25 30"><path fill="#fff" fill-rule="evenodd" d="M18.617.076a1 1 0 0 1 1.09.217c.909.908 2.097 2.878 3.059 5.918C23.737 9.28 24.5 13.508 24.5 19a1 1 0 0 1-1 1H20v9a1 1 0 1 1-2 0V1a1 1 0 0 1 .617-.924ZM20 18h2.491c-.086-4.816-.786-8.512-1.632-11.186-.278-.88-.57-1.643-.859-2.295V18ZM6 0a1 1 0 0 1 1 1v28a1 1 0 1 1-2 0V1a1 1 0 0 1 1-1Z" clip-rule="evenodd"></path><path fill="#fff" fill-rule="evenodd" d="M1.5 0a1 1 0 0 1 1 1v5.5c0 .557.192 1.315.7 1.917C3.68 8.983 4.515 9.5 6 9.5a1 1 0 1 1 0 2c-2.015 0-3.43-.733-4.326-1.792A5.068 5.068 0 0 1 .5 6.5V1a1 1 0 0 1 1-1Z" clip-rule="evenodd"></path><path fill="#fff" fill-rule="evenodd" d="M10.5 0a1 1 0 0 0-1 1v5.5a3.07 3.07 0 0 1-.7 1.917C8.32 8.983 7.484 9.5 6 9.5a1 1 0 0 0 0 2c2.014 0 3.43-.733 4.326-1.792A5.068 5.068 0 0 0 11.5 6.5V1a1 1 0 0 0-1-1Z" clip-rule="evenodd"></path></svg><svg fill="none" id="gift" viewBox="0 0 78 81"><path fill="#fff" d="M64.02 35.63H14.03a3.18 3.18 0 0 1-3.18-3.16V23a3.18 3.18 0 0 1 3.18-3.16h49.98A3.17 3.17 0 0 1 67.2 23v9.47a3.17 3.17 0 0 1-3.18 3.16ZM14.03 22.26c-.4 0-.74.34-.74.74v9.47c0 .4.33.74.74.74h49.98c.41 0 .75-.33.75-.74V23c0-.4-.34-.74-.75-.74H14.03Z"></path><path fill="#fff" d="M57.04 68.08H21A6.11 6.11 0 0 1 14.87 62V34.42c0-.67.55-1.21 1.22-1.21.68 0 1.22.54 1.22 1.21V62A3.68 3.68 0 0 0 21 65.66h36.04a3.68 3.68 0 0 0 3.7-3.67V34.42a1.22 1.22 0 0 1 2.44 0V62a6.11 6.11 0 0 1-6.14 6.1Z"></path><path fill="#fff" d="M39.02 68.08c-.67 0-1.22-.54-1.22-1.2V34.41c0-.67.55-1.21 1.22-1.21.68 0 1.22.54 1.22 1.21v32.45c0 .67-.54 1.21-1.22 1.21ZM23.81 22.26a7.81 7.81 0 0 1-3.17-10.6A7.9 7.9 0 0 1 31.3 8.5c5.82 3.13 8.96 11.86 9.09 12.23l-2.3.8c-.03-.08-2.96-8.22-7.95-10.9a5.45 5.45 0 0 0-7.36 2.17 5.4 5.4 0 0 0 2.2 7.33l-1.17 2.13Z"></path><path fill="#fff" d="m54.23 22.26-1.16-2.14a5.38 5.38 0 0 0-1.03-9.92 5.42 5.42 0 0 0-4.14.43c-4.98 2.68-7.91 10.82-7.94 10.9l-2.3-.8c.13-.37 3.27-9.1 9.08-12.23a7.86 7.86 0 0 1 11.29 9.1c-.6 2-1.95 3.66-3.8 4.66ZM61.95 51.86H16.09c-.67 0-1.22-.55-1.22-1.21 0-.67.55-1.22 1.22-1.22h45.86a1.21 1.21 0 1 1 0 2.42Z"></path></svg><svg fill="none" id="leaf" viewBox="0 0 25 28"><path fill="#fff" d="M24.844.767c-.1-.45-.48-.767-.912-.767h-.005C18.989.033 6.982.916 2.134 8.38c-2.518 3.878-2.735 8.913-.644 14.965.016.047.048.079.07.122C.813 25.44.523 26.753.516 26.79c-.11.54.214 1.072.72 1.188a.88.88 0 0 0 .197.022c.433 0 .822-.321.916-.79.02-.102 2.409-10.373 10.854-16.378.431-.306.547-.927.26-1.387-.288-.46-.87-.585-1.3-.277-4.79 3.405-7.739 8.008-9.473 11.656-1.242-4.578-.916-8.377.986-11.305 3.743-5.764 12.622-7.154 17.982-7.448C20.505 3.872 19.245 7.174 19.245 13c0 3.12-.83 5.522-2.465 7.14-2.62 2.591-6.88 2.834-9.993 2.584-.518-.045-.967.371-1.006.922-.04.55.347 1.03.863 1.072.623.051 1.29.082 1.981.082 3.17 0 6.87-.663 9.43-3.194 2.034-2.011 3.065-4.906 3.065-8.605 0-9.099 3.216-11.096 3.232-11.105.39-.209.594-.677.492-1.129Z"></path></svg><svg fill="none" id="powder" viewBox="0 0 26 29"><path fill="#fff" d="M10.875 0c-1.631 0-2.9 1.36-2.9 3.081 0 1.722 1.269 3.081 2.9 3.081s2.9-1.359 2.9-3.08c0-1.723-1.269-3.082-2.9-3.082Zm0 1.178c.997 0 1.722.843 1.722 1.903 0 .997-.789 1.903-1.722 1.903-.997 0-1.722-.842-1.722-1.903 0-.997.78-1.903 1.722-1.903ZM0 24.741c0 1.178.408 2.175 1.36 2.99.996.852 2.174.78 2.174.78h19.032c.779 0 1.812-.381 2.628-1.45.843-.997.788-2.357.788-2.357V7.486c0-.435-.109-.598-.743-.598s-.689.271-.689.589v17.218c-.018.3-.072 1.088-.743 1.722-.734.625-1.45.544-1.45.544s-18.125 0-19.031-.027c-.344-.064-.906-.19-1.45-.907-.508-.725-.408-1.63-.408-1.63V7.176c0-.462-.236-.634-.725-.634-.49 0-.743.172-.743.58v17.618ZM16.313 8.428c-1.088.236-2.175.38-4.26 2.356-2.084 1.994-3.625 1.903-5.166 1.813-1.54-.09-3.171-1.54-3.443-1.903-.336-.354-.906-.118-1.088.118-.154.235-.154.643.109.996 1.269 1.179 2.447 2.085 4.713 2.266 2.265.218 4.44-.806 5.89-2.266 1.45-1.45 2.175-1.721 3.263-1.903 2.628-.417 4.168.617 5.075 1.27.997 1.087 1.268.778 1.54.47.544-.716-.226-1.268-1.087-1.903-1.813-1.178-3.535-1.631-5.528-1.269l-.018-.045Zm-9.063 7.16c-1.178 0-2.084.996-2.084 2.265 0 1.269.906 2.266 2.084 2.266s2.084-.997 2.084-2.266c0-1.269-.906-2.266-2.084-2.266Zm11.781.779c-1.54 0-2.81 1.36-2.81 2.99 0 1.632 1.27 2.991 2.81 2.991s2.81-1.36 2.81-2.99c0-1.632-1.27-2.991-2.81-2.991Zm0 1.45c.798 0 1.45.698 1.45 1.54 0 .861-.652 1.541-1.45 1.541-.797 0-1.45-.698-1.45-1.54 0-.861.653-1.541 1.45-1.541Z"></path></svg><svg fill="none" id="watch" viewBox="0 0 26 31"><path fill="#fff" d="M5.538 0c-1.063 0-1.063 1.583 0 1.583h6.643v1.604C5.38 3.62 0 9.414 0 16.485c0 4.01 1.743 7.63 4.496 10.069.479.422.542 1.171.107 1.636L3.072 29.74c-.744.686.361 1.752 1.031 1.003l1.998-2.037c.351-.338.872-.422 1.308-.211a12.702 12.702 0 0 0 11.065.063 1.14 1.14 0 0 1 1.297.211l1.934 1.974c.68.633 1.659-.317 1.042-1.003l-1.445-1.477c-.447-.454-.383-1.203.106-1.636a13.462 13.462 0 0 0 3.403-4.583A13.376 13.376 0 0 0 26 16.475c0-7.071-5.41-12.876-12.224-13.288V1.583h6.643c1.063 0 1.063-1.583 0-1.583H5.538ZM1.435 16.475c0-6.533 5.177-11.82 11.565-11.82 6.378 0 11.554 5.287 11.554 11.82 0 6.543-5.176 11.841-11.554 11.841S1.435 23.018 1.435 16.475ZM12.192 8.38c0-1.098 1.658-1.098 1.658 0v8.633c0 .224-.09.439-.249.597a.853.853 0 0 1-.601.247.811.811 0 0 1-.568-.23.8.8 0 0 1-.24-.561V8.38Zm-4.975 2.617c.308 0 .602-.12.82-.337a1.146 1.146 0 0 0 0-1.627 1.163 1.163 0 0 0-.82-.336c-.286.027-.553.16-.746.371a1.146 1.146 0 0 0 0 1.547c.193.212.46.344.746.372v.01Zm11.555 0c.307 0 .602-.12.82-.337a1.146 1.146 0 0 0 0-1.627 1.163 1.163 0 0 0-.82-.336c-.287.027-.553.16-.747.371a1.145 1.145 0 0 0 0 1.547c.194.212.46.344.747.372v.01ZM8.376 23.588c0 1.53-2.317 1.53-2.317 0s2.317-1.53 2.317 0ZM13 27.028a1.169 1.169 0 0 0 .89-.293 1.153 1.153 0 0 0 .38-.851 1.145 1.145 0 0 0-.38-.852 1.162 1.162 0 0 0-1.637.078 1.146 1.146 0 0 0 0 1.547c.194.212.46.344.747.372ZM4.91 16.645a1.143 1.143 0 0 1-.295.883 1.158 1.158 0 0 1-.857.377 1.166 1.166 0 0 1-.858-.377 1.148 1.148 0 0 1-.296-.883c.028-.285.161-.55.374-.742a1.163 1.163 0 0 1 1.559 0c.213.193.346.457.374.742Zm17.327 1.15a1.165 1.165 0 0 0 1.17-.68 1.144 1.144 0 0 0-.694-1.557 1.166 1.166 0 0 0-1.223.318 1.146 1.146 0 0 0 0 1.547c.194.212.46.345.747.372Zm-2.307 5.805c0 1.52-2.317 1.52-2.317-.01 0-1.531 2.317-1.531 2.317 0v.01Z"></path></svg></svg>