<svg xmlns="http://www.w3.org/2000/svg" fill="none" viewBox="0 0 26 31"><path fill="#fff" d="M5.54 0c-1.06 0-1.06 1.58 0 1.58h6.64v1.6c-6.8.44-12.18 6.23-12.18 13.3 0 4.01 1.74 7.63 4.5 10.07.48.43.54 1.18.1 1.64l-1.53 1.55c-.74.69.36 1.75 1.03 1l2-2.03c.35-.34.87-.43 1.3-.22a12.7 12.7 0 0 0 11.07.07 1.14 1.14 0 0 1 1.3.2l1.94 1.98c.68.64 1.65-.31 1.04-1l-1.45-1.48c-.44-.45-.38-1.2.1-1.63a13.46 13.46 0 0 0 3.41-4.59 13.38 13.38 0 0 0 1.19-5.56c0-7.08-5.41-12.88-12.22-13.3v-1.6h6.64c1.06 0 1.06-1.58 0-1.58h-14.88Zm-4.1 16.48a11.7 11.7 0 0 1 11.56-11.82c6.38 0 11.55 5.28 11.55 11.82s-5.17 11.84-11.55 11.84-11.56-5.3-11.56-11.84Zm10.75-8.1c0-1.1 1.66-1.1 1.66 0v8.63c0 .23-.09.44-.25.6a.85.85 0 0 1-.6.25.81.81 0 0 1-.57-.23.8.8 0 0 1-.24-.56v-8.69Zm-4.97 2.62c.3 0 .6-.12.82-.34a1.15 1.15 0 0 0 0-1.63 1.16 1.16 0 0 0-.82-.33c-.29.02-.56.16-.75.37a1.15 1.15 0 0 0 0 1.54c.2.22.46.35.75.38Zm11.55 0c.3 0 .6-.12.82-.34a1.15 1.15 0 0 0 0-1.63 1.16 1.16 0 0 0-.82-.33c-.29.02-.55.16-.75.37a1.15 1.15 0 0 0 0 1.54c.2.22.46.35.75.38Zm-10.4 12.59c0 1.53-2.31 1.53-2.31 0s2.32-1.53 2.32 0Zm4.63 3.44a1.17 1.17 0 0 0 .89-.3 1.15 1.15 0 0 0 .38-.85 1.15 1.15 0 0 0-.38-.85 1.16 1.16 0 0 0-1.64.08 1.15 1.15 0 0 0 0 1.55c.2.2.46.34.75.37Zm-8.09-10.39a1.14 1.14 0 0 1-.3.89 1.16 1.16 0 0 1-.85.37 1.17 1.17 0 0 1-.86-.37 1.15 1.15 0 0 1-.3-.89c.03-.28.17-.55.38-.74a1.16 1.16 0 0 1 1.56 0c.21.2.34.46.37.74Zm17.33 1.15a1.17 1.17 0 0 0 1.17-.68 1.14 1.14 0 0 0-.7-1.55 1.17 1.17 0 0 0-1.22.32 1.15 1.15 0 0 0 0 1.54c.2.21.46.35.75.37Zm-2.31 5.81c0 1.52-2.32 1.52-2.32-.01s2.32-1.53 2.32 0v.01Z"/></svg>