<svg xmlns="http://www.w3.org/2000/svg" fill="none" viewBox="0 0 80 83"><path fill="#fff" d="M65.66 36.02h-51.27a3.27 3.27 0 0 1-3.26-3.28v-9.83a3.27 3.27 0 0 1 3.26-3.28h51.27c1.8 0 3.26 1.48 3.26 3.28v9.83a3.27 3.27 0 0 1-3.26 3.27Zm-51.27-13.87a.78.78 0 0 0-.76.76v9.83c0 .42.34.76.76.76h51.27c.42 0 .76-.34.76-.76v-9.83a.77.77 0 0 0-.76-.76h-51.27Z"/><path fill="#fff" d="M58.5 69.67h-36.96a6.3 6.3 0 0 1-6.28-6.32v-28.6c0-.68.56-1.25 1.25-1.25s1.25.57 1.25 1.26v28.6a3.8 3.8 0 0 0 3.78 3.8h36.97a3.8 3.8 0 0 0 3.78-3.8v-28.6c0-.7.56-1.26 1.25-1.26s1.25.57 1.25 1.26v28.6a6.3 6.3 0 0 1-6.28 6.3Z"/><path fill="#fff" d="M40.02 69.67c-.69 0-1.25-.57-1.25-1.26v-33.65c0-.7.56-1.26 1.25-1.26s1.25.57 1.25 1.26v33.65c0 .7-.56 1.26-1.25 1.26Zm-15.6-47.53a8.15 8.15 0 0 1-3.25-11 8.06 8.06 0 0 1 10.94-3.27c5.96 3.25 9.18 12.3 9.31 12.7l-2.36.82c-.03-.08-3.03-8.53-8.14-11.3a5.56 5.56 0 0 0-7.55 2.25 5.62 5.62 0 0 0 2.24 7.6l-1.19 2.2Z"/><path fill="#fff" d="m55.62 22.14-1.19-2.2a5.56 5.56 0 0 0 2.69-3.34 5.58 5.58 0 0 0-.44-4.26 5.53 5.53 0 0 0-3.31-2.7 5.5 5.5 0 0 0-4.24.44c-5.11 2.78-8.12 11.23-8.15 11.31l-2.36-.83c.14-.38 3.36-9.44 9.32-12.69a7.98 7.98 0 0 1 6.14-.64 8.02 8.02 0 0 1 4.8 3.91 8.1 8.1 0 0 1 .64 6.18 8.06 8.06 0 0 1-3.9 4.82Zm7.92 30.7h-47.03a1.25 1.25 0 0 1 0-2.51h47.03a1.25 1.25 0 0 1 0 2.51Z"/></svg>
